<svg width="228" height="219" viewBox="0 0 228 219" fill="none" xmlns="http://www.w3.org/2000/svg">
<path d="M116.403 150.5C68.4033 103.5 91.9031 22.5 115.403 0C156.903 43.5 145.403 124 116.403 150.5Z" fill="#FFB0B0" fill-opacity="0.55"/>
<path d="M89.7132 133.307C91.7468 64.3505 162.567 26.0656 195.098 26.5641C194.069 86.6763 129.329 135.882 89.7132 133.307Z" fill="#FFB0B0" fill-opacity="0.55"/>
<path d="M76.9033 103.5C126.903 58 205.137 85.1284 226.506 109.66C181.102 149.069 101.463 134.69 76.9033 103.5Z" fill="#FFB0B0" fill-opacity="0.55"/>
<path d="M88.8113 83.3527C157.701 87.0203 194.296 158.728 193.026 191.238C132.956 188.784 85.298 122.896 88.8113 83.3527Z" fill="#FFB0B0" fill-opacity="0.55"/>
<path d="M142.903 132C78.4032 129.5 37.6778 62.4887 39.4033 30.0001C107.903 34.5001 145.403 94.4997 142.903 132Z" fill="#FFB0B0" fill-opacity="0.55"/>
<path d="M116.387 68.5C163.387 119 139.887 196 116.387 218.5C74.8869 175 86.387 94.5 116.387 68.5Z" fill="#FFB0B0" fill-opacity="0.55"/>
<path d="M141.904 78.0001C141.904 164.5 69.4339 184.997 36.9032 184.5C41.4033 121 94.9035 74.5 141.904 78.0001Z" fill="#FFB0B0" fill-opacity="0.55"/>
<path d="M150.904 109C93.4039 154.176 41.4033 128 0.308487 107.823C60.9029 74.4994 112.951 75.9288 150.904 109Z" fill="#FFB0B0" fill-opacity="0.55"/>
<circle cx="116.403" cy="105.5" r="17" fill="#FFE7AB" fill-opacity="0.99"/>
</svg>
