<svg width="298" height="286" viewBox="0 0 298 286" fill="none" xmlns="http://www.w3.org/2000/svg">
<path d="M152.007 196.533C89.3255 135.157 120.013 29.382 150.701 0C204.895 56.8051 189.877 161.927 152.007 196.533Z" fill="#DC5C76" fill-opacity="0.75"/>
<path d="M117.153 174.081C119.809 84.0331 212.291 34.0381 254.771 34.6892C253.428 113.188 168.886 177.444 117.153 174.081Z" fill="#DC5C76" fill-opacity="0.75"/>
<path d="M100.425 133.851C165.719 74.4343 267.881 109.86 295.787 141.896C236.495 193.358 132.498 174.581 100.425 133.851Z" fill="#DC5C76" fill-opacity="0.75"/>
<path d="M115.976 108.847C205.936 113.637 253.724 207.278 252.067 249.731C173.622 246.527 111.388 160.486 115.976 108.847Z" fill="#DC5C76" fill-opacity="0.75"/>
<path d="M186.613 172.374C102.384 169.11 49.2022 81.6019 51.4554 39.1761C140.907 45.0525 189.877 123.404 186.613 172.374Z" fill="#DC5C76" fill-opacity="0.75"/>
<path d="M151.986 89.4518C213.361 155.398 182.674 255.95 151.986 285.332C97.7922 228.526 112.81 123.404 151.986 89.4518Z" fill="#DC5C76" fill-opacity="0.75"/>
<path d="M185.307 101.858C185.307 214.815 90.6713 241.581 48.1907 240.932C54.0672 158.01 123.931 97.287 185.307 101.858Z" fill="#DC5C76" fill-opacity="0.75"/>
<path d="M197.06 142.339C121.973 201.333 54.0672 167.151 0.402842 140.803C79.531 97.2862 147.499 99.1528 197.06 142.339Z" fill="#DC5C76" fill-opacity="0.75"/>
<circle cx="152.007" cy="137.769" r="22.1997" fill="#FFE7AB" fill-opacity="0.99"/>
</svg>
